<svg xmlns="http://www.w3.org/2000/svg" xmlns:xlink="http://www.w3.org/1999/xlink" viewBox="0 0 750 500"><defs><style>.cls-1{fill:none;}.cls-2{clip-path:url(#clip-path);}.cls-3{fill:url(#linear-gradient);}</style><clipPath id="clip-path"><rect class="cls-1" width="750" height="500"/></clipPath><linearGradient id="linear-gradient" x1="131.16" y1="609.31" x2="642.72" y2="-128.92" gradientUnits="userSpaceOnUse"><stop offset="0" stop-color="#c8cacc"/><stop offset="0.14" stop-color="#d5d6d7"/><stop offset="0.38" stop-color="#e4e6e6"/><stop offset="0.57" stop-color="#eaebeb"/><stop offset="0.75" stop-color="#eeefef"/><stop offset="0.93" stop-color="#fafbfb"/><stop offset="0.98" stop-color="#fff"/></linearGradient></defs><title>Mesa de trabajo 1</title><g id="OBJECTS"><g class="cls-2"><path class="cls-3" d="M391.88,473.85V443l-29.14-16.82v33.07l-27.13,15.66V442.39L307,458.92l-27.64-16v-30.3a2,2,0,0,0,1.47-1.9,1.81,1.81,0,0,0-.08-.51l26.5-15.3.25-.14V361.17L278.84,377.7,250.7,361.45,222.56,377.7l-27.63-16V329.83l28.63-16.53-28.63-16.53V263.7L166,280.38l-.25.14v31.92L140,297.57a1.7,1.7,0,0,0,.08-.51,2,2,0,0,0-1.47-1.89v-62.8l27.89-16.1.25-.14V182.48L137.9,199.16l-.25.14v32.49l-27.63,16L82.88,232.08l27.39-15.81.25-.14V182.48L81.63,199.16l-.25.14v64.41L55.63,248.84a1.7,1.7,0,0,0,.08-.51,2,2,0,0,0-1.46-1.89V215.55l-27.64-16,27.14-15.67.5.29v-.58l.5-.29-.5-.29V150.57L27.5,135.13a2.09,2.09,0,0,0,.07-.51,2,2,0,1,0-2.46,1.89v30.31L-3.53,183.35,24.61,199.6-2.78,215.41l-.25.14V248l-.5.29.5.29v32.49L24.6,297.05-2.8,312.87-3,313v33.64L25.84,330l.25-.14V297.92h0V264.86l26.24-15.15a2,2,0,0,0,.9.51V281.1l27.63,16L53.5,312.87l-.25.14v32.5L27,360.65a2,2,0,1,0-1.9,3.27v62.76L-2.8,442.81-3,443V476.6l0,0v31.94l28.13,16.24v.58l.5-.29.5.29v-.58L54,508.65l.25-.14V474.87L27,490.59a2,2,0,0,0-1.4-.58,2,2,0,0,0-1.39.58L-1.53,475.72l26.66-15.39v0l28.64-16.53L82.4,460.36V427.28l27.87-16.08.25-.15V380.17a2,2,0,1,0-2.46-1.89,2.09,2.09,0,0,0,.07.51l-26.5,15.3-.25.14v31.9L54.27,410.48V346.06l27.61-15.94,28.64,16.53V313.59l26.24-15.15a2,2,0,0,0,.89.51v30.89l26.75,15.44a1.89,1.89,0,0,0,0,1l-26.5,15.3-.25.15v64.93l-26.08,15.07a2,2,0,1,0-2.1,3V476.6l28.14-16.25v31.92l29.14,16.82V475.44L139.14,459.5l27.15-15.67L192.54,459a2.26,2.26,0,0,0-.08.51,2,2,0,1,0,2.47-1.89V394.81l27.63-16,27.14,15.67-27.39,15.81-.25.15V443l-.5.28.5.29v31.91l-27.88,16.1-.25.15v33.64l28.88-16.68.25-.14V476.61l27.14,15.67v.57l.5-.29,28.63,16.54V477.63a1.88,1.88,0,0,0,.9-.51l26.24,15.15v33.06l28.14-16.24h0l28.88-16.67.25-.15V460.36l25.75,14.87a2.09,2.09,0,0,0-.07.51,2,2,0,1,0,2.46-1.89Zm-309.5-274,27.14-15.67v31.34L82.38,231.21ZM25.09,329.26-2,344.92V313.59l27.14-15.66ZM53.27,476.6v31.33L26.13,523.6V493.87A2,2,0,0,0,27.6,492a2.25,2.25,0,0,0-.08-.52ZM25.13,493.87V523.6L-2,507.93V476.6l25.75,14.87a1.7,1.7,0,0,0-.08.51A2,2,0,0,0,25.13,493.87Zm309.48-18.43-27.14,15.67V459.79l27.14-15.67Zm-56.28-1.59a2,2,0,0,0-.89.51L251.7,459.5l26.63-15.38ZM251.2,426.72V395.39L277,410.25a1.81,1.81,0,0,0-.08.51,2,2,0,0,0,1.46,1.89v29.74Zm27.13-17.85a2,2,0,0,0-.89.51L251.7,394.52l26.63-15.38ZM250.7,427.59l27.13,15.66-12.32,7.12-14.81,8.55-27.14-15.67,12.33-7.11Zm.5,32.77L277,475.23a1.75,1.75,0,0,0-.08.51,1.7,1.7,0,0,0,.08.51L251.2,491.12Zm55.27-66.13-26.24,15.15a2,2,0,0,0-.9-.51v-30.3l27.14-15.67ZM166.79,343.9V314.17l27.14,15.66v31.34L168.18,346.3a2.09,2.09,0,0,0,.07-.51A2,2,0,0,0,166.79,343.9Zm0,3.78a1.9,1.9,0,0,0,.89-.51L193.42,362l-26.63,15.38ZM194.43,329,167.29,313.3l13.31-7.68,13.83-8,27.13,15.67ZM166.79,281.1l27.14-15.67v31.34l-27.14,15.67Zm-28.14-81.22,27.14-15.67v31.34l-27.14,15.66Zm-1,64.4-8.87,5.13L110.52,280V248.62L137.65,233Zm-28.13,48.15L96,304.6l-13.57-7.83V265.44L96,273.27l13.57,7.83ZM82.38,233l27.14,15.67V280L96,272.12l-13.57-7.84ZM53.25,246.44a1.93,1.93,0,0,0-.9.51L26.11,231.79V200.46l27.14,15.67Zm0-95.29v31.33L26.11,166.82V136.51A2,2,0,0,0,27,136ZM25.61,167.68l27.14,15.67L26.11,198.73h0l-.5.29-.5-.29h0L-1.53,183.35ZM-2,216.13l27.14-15.67v31.33L-2,247.46Zm0,33.06,27.14,15.67v31.33L-2,280.53ZM25.61,264-1.53,248.33l12.33-7.12,14.81-8.55,26.25,15.16a1.67,1.67,0,0,0,0,1Zm28.64-13.78a2,2,0,0,0,.89-.51l26.24,15.15v31.33L54.25,280.53Zm0,63.37,27.13-15.67v31.34L54.25,344.92ZM26.13,363.92A2,2,0,0,0,27.6,362a2.26,2.26,0,0,0-.08-.51l25.75-14.86V378L26.13,393.66Zm27.14,46.56L26.13,426.14V394.81l27.14-15.67ZM25.09,459.2-2,474.87V443.53l27.14-15.67Zm1-31.9,27.14-15.67V443L26.13,458.63Zm56.25-32.49,26.25-15.15a2,2,0,0,0,.89.51v30.31L82.38,426.14Zm-1,33.05v30.77L54.27,443V411.63l27.11,15.65v.59Zm28.12-82.94L82.38,329.26V297.92L96,305.76l13.57,7.83Zm1-32.48V281.1l15.5-9,11.63-6.71v29.73a2,2,0,0,0-1.46,1.89,1.7,1.7,0,0,0,.08.51Zm28.13,16.82V299a2,2,0,0,0,.9-.51l26.24,15.15V343.9a2,2,0,0,0-.89.51Zm0,33.06,26.25-15.15a1.9,1.9,0,0,0,.89.51V378l-.5.29h0l-26.64,15.38Zm0,65,27.14-15.67V443l-27.14,15.67Zm27.14-16.82-27.14,15.66V394.81l27.14-15.67Zm-55.32,64.39v-30.1a2,2,0,0,0,1.47-1.89c0-.06,0-.12,0-.18l25.69-14.84V459.2Zm55.28,32.48-27.14-15.66V460.35L165.75,476Zm28.18-49.75a2,2,0,0,0-.9.51L166.79,443V411.63l27.14,15.67Zm-27.14-47.12V379.14l27.14,15.67v31.33Zm27.64-16.54-27.14-15.66,27.13-15.67.51.29h0l26.63,15.38Zm56.27-31.33,27.13,15.67L251.2,393.66h0l-.5.28-.5-.28h0l-26.64-15.38Zm-27.64,48.44,27.14-15.66v31.33l-27.14,15.67Zm-1,96.89-27.13,15.67V492.28l27.13-15.67Zm1-32.49V444.12l27.14,15.67v31.33ZM251.7,492l25.74-14.87a1.9,1.9,0,0,0,.89.51v29.73Zm27.63-18.14V444.12l27.14,15.67v31.33l-25.75-14.87a1.7,1.7,0,0,0,.08-.51A2,2,0,0,0,279.33,473.85Zm28.14,49.75V492.27l27.14-15.66v31.32Zm55.27-31.91-27.13,15.67V476l27.13-15.67Zm1-32.48V427.87l27.14,15.67v30.31a2,2,0,0,0-.89.51ZM758.17,270.39,730,254.14l27.39-15.81.25-.14V205.7l.5-.29-.5-.29V172.63L730,156.68l27.4-15.82.25-.14V107.08L728.8,123.76l-.25.14v31.92h0v33.07L702.29,204a1.9,1.9,0,0,0-.89-.51V140.15l-28.14-16.24V91.42L646.51,76a1.82,1.82,0,0,0,.08-.52,1.7,1.7,0,0,0-.08-.51L673,59.65l.25-.14V27.61l27.11,15.65v65.55l27.25-15.73a2,2,0,1,0,1.89-3.27V27.05l27.93-16.12.25-.15V-22.86L729.51-6.59v0L700.87,9.91,672.24-6.62V26.45L644.37,42.54l-.25.14V73.57a2,2,0,0,0,0,3.78v30.89l28.14,16.24v31.91l-27.14,15.67V140.14L617,123.9v-.58l-.5.29-.5-.29v.58L588.1,140l-.25.14v33.65l27.24-15.73a2,2,0,0,0,1.4.58,1.94,1.94,0,0,0,1.39-.58l26.24,15.15v65.56l28.64-16.54,27.64,16h0L728,254.14,700.9,269.81l-.5-.29v.58l-.5.29.5.28v32.49l28.13,16.25v30.31a2,2,0,1,0,2.47,1.89,2.09,2.09,0,0,0-.08-.51l26.5-15.3.25-.15V302l-28.14,16.24V286.92ZM729.55,124.48l27.14-15.67v31.33l-27.14,15.67Zm27.12,113.13-27.14,15.67V221.94l27.14-15.66Zm0-33.07-27.14-15.66V157.54l27.14,15.67ZM729,189.74l27.14,15.67-12.33,7.12L729,221.08l-26.25-15.16a1.67,1.67,0,0,0,0-1ZM700.4,173.21v30.31a1.88,1.88,0,0,0-.9.51l-12.67-7.32-13.57-7.83V157.55l13.57,7.83Zm1-130L728.51,27.6V58.93L701.37,74.59Zm0,63.82V75.75l27.14-15.67V89.81a2,2,0,0,0-1.46,1.89,2.09,2.09,0,0,0,.07.51ZM729.55-5.46l27.14-15.67V10.2L729.55,25.87Zm-1,31.9L701.37,42.11V10.78L728.51-4.89ZM673.24-4.89l27.13,15.67V42.11L673.26,26.45v-.59l0,0Zm-1,32.49V58.93L646,74.08a1.88,1.88,0,0,0-.9-.51V43.26Zm-27.14,80.06V77.35a1.85,1.85,0,0,0,.89-.51L672.26,92v31.33Zm55.28,33.07v31.33l-13.57-7.83-13.57-7.84V125.06ZM588.85,172.05V140.72L616,125.05v29.74a2,2,0,0,0-1.46,1.89,2.09,2.09,0,0,0,.07.51ZM617,154.79V125.06l27.13,15.66v31.33l-25.74-14.86a2.09,2.09,0,0,0,.07-.51A2,2,0,0,0,617,154.79Zm28.13,18.42,27.14-15.66v31.33l-27.14,15.66Zm0,32.49L672.26,190v31.34L645.12,237Zm28.14,15.66V190l13.57,7.84,12.18,7a1.7,1.7,0,0,0-.08.51,2,2,0,0,0,1.47,1.89V237ZM701.4,207.3a2,2,0,0,0,.89-.51l26.24,15.15v31.34L701.4,237.61ZM728.53,255h0l.5-.29.5.29h0l26.64,15.38L729,286.05,701.9,270.39ZM701.4,271.25l27.13,15.67v31.33L701.4,302.59Zm55.27,32.49v31.33l-26.25,15.16a1.9,1.9,0,0,0-.89-.51V319.41ZM590.32,108a2.25,2.25,0,0,0-.08-.52l26.5-15.29L617,92V27.05L643.07,12a2,2,0,1,0,2.1-3V-22.86L617-6.62V-38.53L587.9-55.35v33.64L615.5-5.77,588.35,9.91,562.1-5.25a1.7,1.7,0,0,0,.08-.51,2,2,0,0,0-2-2,2,2,0,0,0-2,2,2,2,0,0,0,1.47,1.89V25.86h0V58.93L532.08,74.88,504.94,59.22,532.33,43.4l.25-.14V10.77l.5-.29-.5-.29V-21.72l27.89-16.1.25-.14V-71.6L531.83-54.93l-.25.15v31.91L504.44-38.54v-.58l-.5.29L475.31-55.36V-23.9a2.07,2.07,0,0,0-.9.51L448.17-38.54V-71.59L420-55.35h0L391.15-38.68l-.25.14V-6.63L363.76-22.29v-.58l-.5.29-.5-.29v.58l-27.63,16L306.49-22.87V10.19L279.36,25.86V-6L250.22-22.87h0L222.09-39.12V-6L195.84,9.1a2,2,0,1,0,0,2.76L222.09,27V60.08L251,43.4l.25-.14V11.35L278.36,27V60.08L305.6,44.35a2,2,0,0,0,.89.51V75.74l29.14,16.83V60.08l28.13,16.24V42.68L336.13,26.73l27.13-15.67L391.9,27.59V-5.47L419-21.14V42.69l-27.89,16.1-.25.14V92.57l27.24-15.72a2,2,0,0,0,1.4.58,2,2,0,0,0,.5-3.86V43.26l27.88-16.1.25-.14V-4.89l27.14,15.66V41.08A2,2,0,0,0,473.85,43a2.09,2.09,0,0,0,.07.51l-26.5,15.3-.25.15V92.57L475.81,76l28.13,16.24L532.08,76l28.14,16.24,27.63-16v29.73a2,2,0,1,0,2.47,1.89ZM616,91.41l-26.24,15.15a2,2,0,0,0-.9-.5V75.75l.5-.29h0L616,60.08ZM560.72,27.59l27.13,15.67V74.59L560.72,58.93Zm28.13,15.67L616,27.6V58.93L588.85,74.59ZM616,26.44,588.85,42.11V10.78L616-4.89Zm28.18-47.57V9a2,2,0,0,0-1.46,1.89c0,.07,0,.13,0,.19L617,25.87V-5.46ZM588.9-53.62,616-37.95V-6.62L588.9-22.28ZM560.72-3.87a1.9,1.9,0,0,0,.89-.51l26.24,15.16V42.1L560.72,26.44Zm-56.78,30L476.81,10.48l12.33-7.11,14.8-8.55,27.14,15.66L518.75,17.6ZM476.31-20.11a2.08,2.08,0,0,0,.89-.51L502.94-5.76,476.31,9.62ZM503.44-6.63,477.7-21.49a2.25,2.25,0,0,0,.07-.52,2.24,2.24,0,0,0-.07-.51l25.74-14.86Zm0,33.65V58.35L477.7,43.48a2.09,2.09,0,0,0,.07-.51,2,2,0,0,0-1.46-1.89V11.35ZM476.31,44.86a1.9,1.9,0,0,0,.89-.51l25.74,14.87L476.31,74.59Zm55.27-2.18L504.44,58.35V27l27.14-15.67Zm1-96.88,27.14-15.67v31.33L532.58-22.87Zm-1,32.48V9.62L504.44-6V-37.38ZM502.94-38.25,477.2-23.39a2,2,0,0,0-.89-.51V-53.63ZM447.17-69.86v31.32L420-22.87V-54.19ZM362.76-21.14V10.19L335.63,25.86V-5.47Zm-55.27,0L334.63-5.47V25.86L321.06,18l-13.57-7.84Zm27.14,79.49-13.57-7.84-12.18-7A2.09,2.09,0,0,0,309,43a2,2,0,0,0-1.47-1.89V11.35l13.57,7.83L334.63,27ZM278.36,25.86,251.22,10.19V-21.14L278.36-5.47ZM223.09-37.39l27.13,15.67V9.62L223.09-6ZM196.34,10,222.58-5.18l27.14,15.66L237.39,17.6l-14.8,8.55L196.34,11a1.89,1.89,0,0,0,0-1Zm53.88,32.71L223.09,58.35V27l27.13-15.67Zm29.14,15.67V27l27.13-15.66V41.08A2,2,0,0,0,305,43a1.7,1.7,0,0,0,.08.51Zm55.27,32.48L307.49,75.17V44.86a2,2,0,0,0,.9-.51l12.67,7.32,13.57,7.83Zm28.13-16.24L335.63,58.92V27.59l27.13,15.67ZM390.9,25.86,363.76,10.19V-21.14L390.9-5.47Zm1-32.49V-38L419-53.62v31.33Zm55.27-30.74V-6L420,9.62V-21.71ZM391.9,90.84V59.51L419,43.84V73.57a2,2,0,0,0-1.47,1.89,2.25,2.25,0,0,0,.08.52Zm55.27-64.4L420,42.11V10.77L447.17-4.89Zm1-63.82,25.75,14.86a2.24,2.24,0,0,0-.07.51,2,2,0,0,0,1.46,1.9V9.62L448.17-6Zm0,96.89,26.25-15.16a1.9,1.9,0,0,0,.89.51V75.17L448.17,90.84Zm55.77,31.62L476.81,75.46l26.63-15.38h0l.5-.29.5.29h0l26.64,15.38Zm29.14-15.67,27.14-15.67,27.13,15.67L560.22,91.13Z"/></g></g></svg>