<svg id="Background" xmlns="http://www.w3.org/2000/svg" xmlns:xlink="http://www.w3.org/1999/xlink" viewBox="0 0 500 164.98"><defs><style>.cls-1,.cls-2,.cls-4,.cls-5{fill:none;}.cls-2,.cls-4,.cls-5{stroke:#404040;stroke-miterlimit:10;}.cls-2{stroke-width:0.34px;}.cls-3{clip-path:url(#clip-path);}.cls-4{stroke-width:0.32px;}.cls-5{stroke-width:0.28px;}</style><clipPath id="clip-path"><rect class="cls-1" x="-15.43" y="110.3" width="65.08" height="18.7" rx="9.19" transform="translate(-102.55 136.75) rotate(-90)"/></clipPath></defs><title>test</title><path class="cls-2" d="M0,67.73h35.4a23.5,23.5,0,0,1,23.5,23.49h0a23.49,23.49,0,0,1-23.5,23.49H0"/><g class="cls-3"><rect class="cls-1" x="-16.01" y="109.43" width="66.22" height="21.58" transform="translate(-103.12 137.33) rotate(-90)"/><line class="cls-2" x1="1.52" y1="168.47" x2="1.52" y2="73.42"/><line class="cls-2" x1="4.64" y1="168.47" x2="4.64" y2="73.42"/><line class="cls-2" x1="7.75" y1="168.47" x2="7.75" y2="73.42"/><line class="cls-2" x1="10.87" y1="168.47" x2="10.87" y2="73.42"/><line class="cls-2" x1="13.99" y1="168.47" x2="13.99" y2="73.42"/><line class="cls-2" x1="17.1" y1="168.47" x2="17.1" y2="73.42"/><line class="cls-2" x1="20.22" y1="168.47" x2="20.22" y2="73.42"/><line class="cls-2" x1="23.34" y1="168.47" x2="23.34" y2="73.42"/><line class="cls-2" x1="26.45" y1="168.47" x2="26.45" y2="73.42"/><line class="cls-2" x1="29.57" y1="168.47" x2="29.57" y2="73.42"/><line class="cls-2" x1="32.69" y1="168.47" x2="32.69" y2="73.42"/></g><rect class="cls-2" x="-15.43" y="110.3" width="65.08" height="18.7" rx="9.19" transform="translate(-102.55 136.75) rotate(-90)"/><path class="cls-2" d="M32.37,111A16.68,16.68,0,1,0,49.05,94.29,16.67,16.67,0,0,0,32.37,111ZM62,111a13,13,0,1,1-13-13A13,13,0,0,1,62,111Z"/><path class="cls-2" d="M48,79.22a7.06,7.06,0,1,0,7.06-7.07A7.06,7.06,0,0,0,48,79.22Z"/><path class="cls-4" d="M500,102.37H476.26a11.44,11.44,0,0,1-11.43-11.44h0a11.44,11.44,0,0,1,11.43-11.44H500"/><polyline class="cls-4" points="441.93 0 441.93 76.59 461.29 76.59 461.29 57.23 480.64 57.23 480.64 37.88 500 37.88"/><polygon class="cls-5" points="441.93 62.24 441.78 58.51 440.91 62.14 441.5 58.46 439.93 61.85 441.23 58.35 439.03 61.36 440.98 58.18 438.24 60.72 440.78 57.98 437.6 59.93 440.61 57.73 437.11 59.03 440.5 57.47 436.82 58.05 440.45 57.18 436.72 57.03 440.45 56.88 436.82 56.02 440.5 56.6 437.11 55.03 440.61 56.33 437.6 54.13 440.78 56.09 438.24 53.35 440.98 55.88 439.03 52.7 441.23 55.72 439.93 52.22 441.5 55.61 440.91 51.92 441.78 55.55 441.93 51.82 442.08 55.55 442.94 51.92 442.36 55.61 443.92 52.22 442.63 55.72 444.83 52.7 442.87 55.88 445.61 53.35 443.08 56.09 446.26 54.13 443.24 56.33 446.74 55.04 443.35 56.6 447.04 56.02 443.41 56.88 447.14 57.03 443.41 57.18 447.04 58.05 443.35 57.47 446.74 59.03 443.24 57.73 446.26 59.93 443.08 57.98 445.61 60.72 442.87 58.18 444.82 61.37 442.63 58.35 443.92 61.85 442.36 58.46 442.94 62.14 442.08 58.51 441.93 62.24"/><line class="cls-4" x1="480.64" y1="72.62" x2="480.64" y2="79.49"/><path class="cls-4" d="M495.9,57a15.59,15.59,0,1,0-15.59,15.59A15.58,15.58,0,0,0,495.9,57Z"/><path class="cls-4" d="M407.2,28.72h43.64a8.59,8.59,0,0,1,8.6,8.59h0a8.59,8.59,0,0,1-8.6,8.59H407.2a8.59,8.59,0,0,1-8.6-8.59h0A8.59,8.59,0,0,1,407.2,28.72Z"/></svg>