<?xml version="1.0" encoding="utf-8"?>
<!-- Generator: Adobe Illustrator 23.0.6, SVG Export Plug-In . SVG Version: 6.00 Build 0)  -->
<svg version="1.1" id="Layer_1" xmlns="http://www.w3.org/2000/svg" xmlns:xlink="http://www.w3.org/1999/xlink" x="0px" y="0px"
	 viewBox="0 0 512 512" style="enable-background:new 0 0 512 512;" xml:space="preserve">
<style type="text/css">
	.st0{fill:#FAA331;stroke:#FAA331;stroke-miterlimit:10;}
	.st1{fill:#E0932C;stroke:#FAA331;stroke-miterlimit:10;}
	.st2{fill:#FFFFFF;}
</style>
<polygon class="st0" points="478.6,233.7 478.6,200.3 445.2,200.3 445.2,167 411.8,167 411.8,133.6 378.4,133.6 378.4,100.2 
	345,100.2 345,66.8 311.7,66.8 311.7,33.4 278.3,33.4 278.3,0 233.7,0 233.7,33.4 200.3,33.4 200.3,66.8 167,66.8 167,100.2 
	133.6,100.2 133.6,133.6 100.2,133.6 100.2,167 66.8,167 66.8,200.3 33.4,200.3 33.4,233.7 0,233.7 0,512 211.5,512 211.5,300.5 
	300.5,300.5 300.5,512 512,512 512,233.7 "/>
<polygon class="st1" points="478.6,233.7 478.6,200.3 445.2,200.3 445.2,167 411.8,167 411.8,133.6 378.4,133.6 378.4,100.2 
	345,100.2 345,66.8 311.7,66.8 311.7,33.4 278.3,33.4 278.3,0 256,0 256,300.5 300.5,300.5 300.5,512 512,512 512,233.7 "/>
<polygon class="st2" points="233.7,0 233.7,33.4 200.3,33.4 200.3,66.8 167,66.8 167,100.2 133.6,100.2 133.6,133.6 100.2,133.6 
	100.2,167 66.8,167 66.8,200.3 33.4,200.3 33.4,233.7 0,233.7 0,267.1 66.8,267.1 66.8,233.7 100.2,233.7 100.2,200.3 133.6,200.3 
	133.6,167 167,167 167,133.6 200.3,133.6 200.3,100.2 233.7,100.2 233.7,66.8 278.3,66.8 278.3,0 "/>
<polygon points="478.6,233.7 478.6,478.6 333.9,478.6 333.9,267.1 178.1,267.1 178.1,478.6 33.4,478.6 33.4,233.7 0,233.7 0,512 
	211.5,512 211.5,300.5 300.5,300.5 300.5,512 512,512 512,233.7 "/>
<rect x="33.4" y="200.3" width="33.4" height="33.4"/>
<rect x="445.2" y="200.3" width="33.4" height="33.4"/>
<rect x="66.8" y="167" width="33.4" height="33.4"/>
<rect x="411.8" y="167" width="33.4" height="33.4"/>
<rect x="100.2" y="133.6" width="33.4" height="33.4"/>
<rect x="378.4" y="133.6" width="33.4" height="33.4"/>
<rect x="133.6" y="100.2" width="33.4" height="33.4"/>
<rect x="345" y="100.2" width="33.4" height="33.4"/>
<rect x="167" y="66.8" width="33.4" height="33.4"/>
<rect x="311.7" y="66.8" width="33.4" height="33.4"/>
<rect x="200.3" y="33.4" width="33.4" height="33.4"/>
<rect x="278.3" y="33.4" width="33.4" height="33.4"/>
<rect x="233.7" y="0" width="44.5" height="33.4"/>
</svg>
